<svg width="58" height="56" viewBox="0 0 58 56" fill="none" xmlns="http://www.w3.org/2000/svg">
<path d="M21.5 54C22.8807 54 24 52.8807 24 51.5C24 50.1193 22.8807 49 21.5 49C20.1193 49 19 50.1193 19 51.5C19 52.8807 20.1193 54 21.5 54Z" stroke="white" stroke-width="3" stroke-linecap="round" stroke-linejoin="round"/>
<path d="M48.5 54C49.8807 54 51 52.8807 51 51.5C51 50.1193 49.8807 49 48.5 49C47.1193 49 46 50.1193 46 51.5C46 52.8807 47.1193 54 48.5 54Z" stroke="white" stroke-width="3" stroke-linecap="round" stroke-linejoin="round"/>
<path d="M2 2H11.8182L18.3964 35.0279C18.6208 36.1635 19.2356 37.1836 20.1331 37.9096C21.0305 38.6356 22.1535 39.0213 23.3055 38.9991H47.1636C48.3156 39.0213 49.4386 38.6356 50.336 37.9096C51.2335 37.1836 51.8483 36.1635 52.0727 35.0279L56 14.333H14.2727" stroke="white" stroke-width="3" stroke-linecap="round" stroke-linejoin="round"/>
</svg>
