<svg width="64" height="64" viewBox="0 0 64 64" fill="none" xmlns="http://www.w3.org/2000/svg">
<g clip-path="url(#clip0)">
<path d="M60.6963 25.1496C58.7944 23.9878 56.3211 24.4623 54.9842 26.2454L49.0001 34.2231C47.9868 35.583 46.4838 36.495 44.8096 36.7657L32.8144 38.3584L38.9714 35.8856C40.7065 35.2648 41.6099 33.3549 40.9892 31.6198C40.7546 30.9641 40.3208 30.3982 39.7484 30.0015C38.9079 29.4144 37.8433 29.2487 36.8642 29.5525L18.211 35.2887C15.6507 36.0137 13.4863 37.732 12.1998 40.0614L8.66971 46.4162C8.63758 46.4736 8.61104 46.534 8.59051 46.5965L3.25745 62.5957C3.07039 63.1537 3.37117 63.7577 3.92914 63.9446C4.03861 63.9812 4.1534 63.9999 4.26886 63.9998H20.2681C20.8059 63.9995 21.2593 63.599 21.3264 63.0654L22.1285 56.646C22.2418 55.763 22.8493 55.0221 23.693 54.7378L50.8197 45.6965C52.8938 45.0114 54.6313 43.5663 55.6831 41.6519L62.1317 31.0921C63.3763 29.0547 62.7337 26.3942 60.6963 25.1496ZM60.311 29.9796L53.8364 40.5853C53.042 42.0454 51.7225 43.1491 50.1448 43.6726L23.0181 52.7149C21.3967 53.2607 20.2294 54.6845 20.0119 56.3814L19.3265 61.8665H5.74919L10.5823 47.3651L14.0644 41.0977C15.0817 39.2582 16.7934 37.9028 18.8172 37.3344L37.4913 31.592C37.8449 31.4816 38.2298 31.5416 38.533 31.7546C38.8437 31.97 39.0353 32.3185 39.0507 32.6963C39.0507 33.2417 38.7035 33.7266 38.1872 33.9025L24.1368 39.5447C23.5904 39.7648 23.3258 40.3861 23.5459 40.9325C23.7278 41.3842 24.1925 41.6554 24.6753 41.5914L45.1191 38.876C47.3502 38.523 49.3551 37.3124 50.7063 35.5021L56.6904 27.5244C57.4161 26.5568 58.7885 26.3608 59.7561 27.0865C60.659 27.7638 60.8992 29.0163 60.311 29.9796Z" fill="white"/>
<path d="M32.001 0.00292969C27.8774 0.00292969 24.5347 3.3457 24.5347 7.46922C24.5347 11.5928 27.8774 14.9355 32.001 14.9355C36.1245 14.9355 39.4673 11.5928 39.4673 7.46922C39.4623 3.34783 36.1225 0.0079961 32.001 0.00292969ZM28.9626 3.08211C29.8552 2.46441 30.9154 2.13442 32.001 2.13616C33.0806 2.13616 34.1346 2.46627 35.0215 3.08211L27.6137 10.4899C25.9407 8.07173 26.5446 4.75523 28.9626 3.08211ZM34.8863 11.9637C34.0253 12.515 33.0234 12.8062 32.001 12.8023C30.9922 12.7999 30.0052 12.5088 29.1564 11.9637L36.4954 4.6247C38.0777 7.09564 37.3572 10.3815 34.8863 11.9637Z" fill="white"/>
<path d="M38.4007 17.0687H25.6014C22.6561 17.0687 20.2683 19.4565 20.2683 22.4018C20.2683 25.3471 22.6561 27.7349 25.6014 27.7349H38.4007C41.3461 27.7349 43.7338 25.3471 43.7338 22.4018C43.7338 19.4565 41.3462 17.0687 38.4007 17.0687ZM30.9344 25.6016H25.6014C23.8349 25.5998 22.4034 24.1682 22.4015 22.4018C22.4034 20.6353 23.8349 19.2038 25.6014 19.202H30.9344V25.6016ZM38.4007 25.6016H33.0677V19.202H38.4007C40.168 19.202 41.6006 20.6345 41.6006 22.4018C41.6006 24.169 40.168 25.6016 38.4007 25.6016Z" fill="white"/>
<path d="M12.8026 23.5628C12.7834 23.5434 12.7641 23.5242 12.7448 23.505C9.82013 20.6176 5.11783 20.6176 2.19317 23.505C-0.704681 26.3708 -0.73068 31.0434 2.13531 33.9412C2.15451 33.9607 2.17384 33.9799 2.19317 33.9991C3.5959 35.3908 5.49301 36.1695 7.46891 36.1646C9.44481 36.1693 11.3419 35.3905 12.7446 33.9991C15.6426 31.1333 15.6685 26.4607 12.8026 23.5628ZM6.50229 33.9412C5.44048 33.7518 4.46133 33.2437 3.6951 32.4847C1.6336 30.4478 1.6136 27.1256 3.65043 25.0641C3.66523 25.0492 3.68017 25.0342 3.6951 25.0194C4.46133 24.2603 5.44034 23.752 6.50229 23.5623V33.9412ZM11.2427 32.4847C10.5252 33.1924 9.6208 33.6809 8.63552 33.8931V23.6104C9.6208 23.8228 10.5252 24.3116 11.2427 25.0193C12.2427 26.0034 12.8046 27.3484 12.802 28.7514C12.8044 30.1548 12.2425 31.5 11.2427 32.4847Z" fill="white"/>
<path d="M18.6673 10.9375L9.33447 1.6025C7.19911 -0.532863 3.73688 -0.532863 1.60152 1.6025C-0.53384 3.73786 -0.53384 7.20008 1.60152 9.33544H1.60259L10.9365 18.6683C13.0787 20.7958 16.5398 20.7839 18.6673 18.6418C20.7846 16.5101 20.7846 13.0693 18.6673 10.9375ZM3.11184 7.82725C1.81311 6.52425 1.81271 4.41636 3.11078 3.11282C4.41391 1.81369 6.52247 1.81315 7.82614 3.11175L11.7382 7.02422L7.02365 11.7391L3.11184 7.82725ZM17.1591 17.1601C15.8556 18.4579 13.7482 18.4579 12.4448 17.1601L8.53197 13.2472L13.2465 8.53268L17.1591 12.4457C18.4581 13.7488 18.4581 15.8571 17.1591 17.1601Z" fill="white"/>
<path d="M62.399 1.60344C60.2642 -0.531654 56.8028 -0.53192 54.6677 1.60291L45.3327 10.9368C43.1981 13.0698 43.1969 16.5292 45.3299 18.6638C46.3557 19.6904 47.7479 20.2666 49.1992 20.2656C50.6488 20.2684 52.0399 19.6933 53.0646 18.6678L62.3985 9.33492C64.5336 7.20009 64.5339 3.73867 62.399 1.60344ZM51.5564 17.1595C50.2546 18.4613 48.1439 18.4613 46.8419 17.1595C45.54 15.8577 45.5401 13.747 46.8419 12.445L50.7551 8.53243L55.4694 13.2467L51.5564 17.1595ZM60.8903 7.82659L56.9778 11.7387L52.2634 7.02423L56.1759 3.11203C57.4777 1.81023 59.5885 1.81023 60.8903 3.11203C62.1923 4.4141 62.1923 6.52479 60.8903 7.82659Z" fill="white"/>
</g>
<defs>
<clipPath id="clip0">
<rect width="64" height="64" fill="white"/>
</clipPath>
</defs>
</svg>
