<svg width="324" height="257" viewBox="0 0 324 257" fill="none" xmlns="http://www.w3.org/2000/svg">
<path d="M31.6602 68.4477L27.7621 50.5753H10.6485L6.75036 68.4477H0L14.4515 4.56318H23.959L38.4105 68.4477H31.6602ZM11.8844 44.6811H26.431L19.1102 11.1228L11.8844 44.6811ZM80.574 16.8267H77.3415C75.6935 16.8267 74.2674 17.2387 73.0631 18.0626C75.028 20.4076 76.0104 23.4814 76.0104 27.284V34.8893C76.0104 39.199 74.711 42.5897 72.1123 45.0614C69.5136 47.4698 65.5838 48.7056 60.323 48.769C56.7101 48.769 54.9036 50.4485 54.9036 53.8075C54.9036 55.3286 55.379 56.4377 56.3298 57.1348C57.2805 57.832 58.8651 58.1806 61.0835 58.1806H66.693C75.3766 58.1806 79.7184 61.8565 79.7184 69.2082V70.4441C79.7184 78.5564 73.9821 82.6126 62.5097 82.6126H58.6116C52.2098 82.6126 47.2659 81.6302 43.7798 79.6655V73.201C47.9631 75.546 52.9071 76.7185 58.6116 76.7185H62.0343C69.5136 76.7185 73.2532 74.627 73.2532 70.4441V69.4934C73.2532 67.6555 72.7778 66.2929 71.8271 65.4056C70.9397 64.4549 69.1016 63.9796 66.3127 63.9796H60.6082C56.8051 63.9796 53.8895 63.2824 51.8612 61.8881C49.8329 60.4938 48.8188 58.4658 48.8188 55.8039V54.2828C48.8188 52.635 49.2625 51.2724 50.1499 50.195C51.1006 49.1176 52.2732 48.3887 53.6677 48.0085C47.3927 46.2339 44.2552 41.8608 44.2552 34.8893V27.284C44.2552 22.9743 45.5545 19.5837 48.1533 17.1119C50.8154 14.6402 54.5867 13.4043 59.4673 13.4043C64.3478 13.4043 68.0241 14.2599 70.496 15.9711C71.7637 12.1685 74.6477 10.2672 79.1479 10.2672H80.574V16.8267ZM69.26 34.8893V27.284C69.26 24.5588 68.5311 22.5307 67.0733 21.1998C65.6789 19.8688 63.3654 19.2034 60.1328 19.2034C56.9002 19.2034 54.555 19.8688 53.0972 21.1998C51.7028 22.5307 51.0056 24.5588 51.0056 27.284V34.8893C51.0056 37.6146 51.7028 39.6426 53.0972 40.9736C54.555 42.3045 56.9002 42.97 60.1328 42.97C63.3654 42.97 65.6789 42.3045 67.0733 40.9736C68.5311 39.6426 69.26 37.6146 69.26 34.8893ZM89.1567 0H95.9071V68.4477H89.1567V0ZM132.224 28.2347C132.224 22.3406 129.309 19.3935 123.477 19.3935C117.646 19.3935 114.73 22.3406 114.73 28.2347V54.568C114.73 60.5255 117.646 63.5043 123.477 63.5043C129.309 63.5043 132.224 60.5255 132.224 54.568V28.2347ZM108.075 28.1396C108.075 23.6398 109.343 20.059 111.878 17.3971C114.413 14.7353 118.28 13.4043 123.477 13.4043C128.675 13.4043 132.541 14.7353 135.077 17.3971C137.612 20.059 138.88 23.6398 138.88 28.1396V54.6631C138.88 59.1629 137.612 62.7437 135.077 65.4056C132.541 68.0674 128.675 69.3984 123.477 69.3984C118.28 69.3984 114.413 68.0674 111.878 65.4056C109.343 62.7437 108.075 59.1629 108.075 54.6631V28.1396ZM178.563 18.0626C182.936 15.4641 187.278 14.1649 191.588 14.1649C195.898 14.1649 199.194 15.274 201.476 17.4922C203.758 19.647 204.899 22.7208 204.899 26.7136V68.4477H198.053V27.3791C198.053 22.7525 195.74 20.4392 191.113 20.4392C187.69 20.4392 184.267 21.485 180.845 23.5764C181.161 24.5271 181.32 25.7946 181.32 27.3791V68.4477H174.57V27.3791C174.57 22.7525 172.224 20.4392 167.534 20.4392C164.555 20.4392 161.322 21.2632 157.836 22.911V68.4477H151.086V14.355H157.551V16.8267C161.798 15.0522 165.506 14.1649 168.675 14.1649C172.985 14.1649 176.281 15.4641 178.563 18.0626ZM216.613 54.6631V28.2347C216.613 23.7349 217.881 20.154 220.416 17.4922C223.015 14.767 226.913 13.4043 232.11 13.4043C237.308 13.4043 241.142 14.767 243.614 17.4922C246.15 20.154 247.417 23.7349 247.417 28.2347V44.7762H223.268V54.3779C223.268 57.2299 224.156 59.353 225.93 60.7473C227.705 62.1416 230.462 62.8388 234.202 62.8388C237.942 62.8388 241.808 62.2684 245.801 61.1276V67.402C242.632 68.416 238.861 68.923 234.487 68.923C222.571 68.923 216.613 64.1697 216.613 54.6631ZM223.268 39.1673H240.952V28.2347C240.952 22.2772 238.005 19.2985 232.11 19.2985C226.216 19.2985 223.268 22.2772 223.268 28.2347V39.1673ZM276.468 14.0698H278.845V20.5343H275.612C273.331 20.5343 271.271 21.1364 269.432 22.3406C268.862 22.7208 267.626 23.5764 265.725 24.9074V68.4477H258.974V14.355H265.439V18.4429C265.629 18.3161 266.105 17.9675 266.865 17.3971C267.689 16.8267 268.165 16.5098 268.292 16.4465C268.482 16.3197 268.894 16.0662 269.528 15.6859C270.225 15.3057 270.732 15.0838 271.049 15.0205C271.429 14.8937 271.936 14.7353 272.57 14.5451C273.521 14.2283 274.82 14.0698 276.468 14.0698ZM288.942 53.047V55.899C288.942 58.4341 289.544 60.3037 290.749 61.5079C291.953 62.712 294.235 63.3141 297.594 63.3141C300.953 63.3141 304.123 62.0783 307.102 59.6065V41.8292L296.263 44.8713C293.411 45.6952 291.477 46.7092 290.463 47.9134C289.449 49.1176 288.942 50.8288 288.942 53.047ZM297.499 13.8797C308.274 13.8797 313.662 18.4745 313.662 27.6643V68.4477H307.197V64.55C303.964 67.402 300.098 68.828 295.597 68.828C286.787 68.828 282.382 64.4866 282.382 55.8039V52.7618C282.382 46.1705 286.217 41.7975 293.886 39.6426L307.197 35.9351V27.6643C307.133 25.0658 306.404 23.1645 305.01 21.9603C303.615 20.7561 300.795 20.1541 296.548 20.1541C292.365 20.1541 288.498 20.7878 284.949 22.0554V15.6859C288.562 14.4818 292.745 13.8797 297.499 13.8797Z" fill="black"/>
<path d="M33.4716 131.589C41.1919 127.365 49.2041 125.253 57.5074 125.253C65.8106 125.253 72.4384 127.584 77.3915 132.245C82.4897 136.76 85.0393 143.606 85.0393 152.782V254.815H51.6077V160.866C51.6077 157.371 49.7137 155.623 45.9265 155.623C42.1385 155.623 38.6424 156.569 35.4382 158.463V254.815H2.4436V125.909H33.4716V131.589ZM154.719 92.2618H171.981V93.3543C171.835 100.492 170.16 106.099 166.955 110.178C163.75 114.256 158.943 116.295 152.534 116.295C148.601 116.295 144.158 114.912 139.205 112.144C134.252 109.231 131.12 107.774 129.809 107.774C126.75 107.774 125.22 110.469 125.22 115.858V116.514H107.958V116.077C108.249 100.346 114.732 92.4803 127.405 92.4803C131.776 92.4803 136.364 93.9372 141.171 96.85C145.979 99.6178 148.965 101.001 150.13 101.001C153.189 101.001 154.719 98.3794 154.719 93.1358V92.2618ZM130.246 217.454V223.572C130.246 228.524 132.796 231 137.894 231C142.264 231 145.906 230.199 148.819 228.597V202.16L138.768 204.782C135.126 205.802 132.796 207.113 131.776 208.715C130.756 210.317 130.246 213.23 130.246 217.454ZM104.681 128.967C112.693 126.2 124.128 124.816 138.986 124.816C153.845 124.816 164.479 128.093 170.888 134.648C177.298 141.057 180.503 150.816 180.503 163.925V254.815H149.693V245.42C145.469 251.975 138.112 255.252 127.624 255.252C117.136 255.252 109.56 252.776 104.899 247.824C100.238 242.726 97.907 234.642 97.907 223.572V216.143C97.907 206.384 100.02 198.883 104.244 193.639C108.614 188.396 115.606 184.463 125.22 181.841L149.038 175.723V163.707C148.892 159.92 147.799 157.298 145.76 155.841C143.721 154.239 140.006 153.438 134.616 153.438C122.526 153.438 112.547 154.967 104.681 158.026V128.967ZM247.48 159.992C247.48 154.458 244.421 151.69 238.303 151.69C232.185 151.69 229.125 154.458 229.125 159.992V220.731C229.125 226.266 232.185 229.034 238.303 229.034C244.421 229.034 247.48 226.266 247.48 220.731V159.992ZM196.786 158.9C196.786 147.83 200.21 139.236 207.056 133.119C214.048 126.855 224.464 123.724 238.303 123.724C252.142 123.724 262.484 126.855 269.331 133.119C276.323 139.236 279.819 147.83 279.819 158.9V221.824C279.819 232.894 276.323 241.56 269.331 247.824C262.484 253.941 252.142 257 238.303 257C224.464 257 214.048 253.941 207.056 247.824C200.21 241.56 196.786 232.894 196.786 221.824V158.9ZM314.386 256.126C308.122 256.126 304.99 252.849 304.99 246.294C304.99 239.594 308.122 236.244 314.386 236.244C320.796 236.244 324 239.594 324 246.294C324 252.849 320.796 256.126 314.386 256.126ZM306.082 107.993H322.907L320.941 217.236H308.049L306.082 107.993Z" fill="#8900F4"/>
</svg>
