<svg width="65" height="65" viewBox="0 0 65 65" fill="none" xmlns="http://www.w3.org/2000/svg">
<g clip-path="url(#clip0)">
<path d="M48.9048 42.557C47.7147 41.3676 44.8287 38.1483 42.5519 32.9275C40.8588 28.8652 36.9219 26.241 32.519 26.241C28.117 26.241 24.1807 28.8656 22.4873 32.9287C19.6308 39.4803 15.7285 42.9474 15.6911 42.9801C15.6865 42.9841 15.6821 42.9881 15.6776 42.9921C13.376 45.0529 12.0559 48.0051 12.0559 51.0916C12.0559 54.8648 13.8527 58.1461 16.9696 60.2252C19.8738 62.1628 23.4733 62.7437 26.8446 61.8194C28.5341 61.3565 30.4895 61.1117 32.5 61.1117C34.5443 61.1117 36.5287 61.3646 38.2386 61.843C41.5109 62.759 45.1025 62.2567 48.0675 60.2977C51.2203 58.2145 53.0481 54.9022 53.0481 51.0916C53.0481 47.7401 51.5392 44.6342 48.9048 42.557ZM46.6675 58.1793C44.3794 59.691 41.5566 60.1351 38.9227 59.3979C36.9929 58.8579 34.7719 58.5727 32.4996 58.5727C30.2657 58.5727 28.0782 58.8487 26.173 59.3707C23.5113 60.1006 20.6703 59.6421 18.3783 58.1131C15.9852 56.5167 14.5946 54.0209 14.5946 51.0914C14.5946 48.7283 15.6046 46.4677 17.3659 44.8881C17.6368 44.6506 21.7567 40.9621 24.8188 33.9333C24.8216 33.9267 24.8245 33.9201 24.8272 33.9135C26.1231 30.795 29.1421 28.78 32.5185 28.78C35.8962 28.7799 38.9158 30.7945 40.2114 33.9122C40.214 33.9188 40.217 33.9255 40.2197 33.9321C42.7063 39.6386 45.9078 43.1616 47.1687 44.4115C47.205 44.4473 47.2433 44.4811 47.2834 44.5123C49.3332 46.105 50.5087 48.503 50.5087 51.0914C50.5089 54.0453 49.0957 56.5749 46.6675 58.1793Z" fill="white"/>
<path d="M28.3854 20.0516C29.6053 17.9194 30.1139 15.0875 29.7807 12.2827C29.1363 6.82206 25.3702 2.24755 21.1626 2.75283C19.2626 2.97766 17.5734 4.22485 16.4053 6.26461C15.1862 8.39514 14.6776 11.2271 15.01 14.0339C16.0625 22.9517 24.3644 27.0756 28.3854 20.0516ZM18.609 7.52589C19.3039 6.31184 20.388 5.25609 21.7853 5.25609C24.2839 5.25609 26.7907 8.61007 27.2594 12.5812C27.5298 14.8578 27.137 17.121 26.1819 18.7905C23.256 23.9021 18.2228 19.5926 17.5314 13.7358C17.2616 11.4574 17.6545 9.19393 18.609 7.52589Z" fill="white"/>
<path d="M16.2247 33.706C16.5923 31.4433 16.1457 28.941 14.9673 26.6597C13.7884 24.378 12.0057 22.5655 9.94741 21.556C7.7614 20.4837 5.5227 20.4284 3.64379 21.3999C1.76488 22.3708 0.515409 24.2285 0.125155 26.6313C-0.242375 28.8941 0.204247 31.3964 1.38263 33.6779C2.56164 35.959 4.34432 37.7711 6.40262 38.7806C8.4453 39.7825 10.7084 39.9698 12.7059 38.9378C14.585 37.967 15.8347 36.1089 16.2247 33.706ZM11.5405 36.682C10.3942 37.2746 8.96669 37.2102 7.52082 36.501C5.94787 35.7295 4.56916 34.3127 3.63846 32.5122C2.70827 30.7113 2.35052 28.7676 2.63134 27.0383C2.88944 25.4491 3.66309 24.248 4.80961 23.6556C4.80973 23.6555 4.80986 23.6555 4.80999 23.6554C6.07774 22.9999 7.54609 23.2061 8.82933 23.8355C10.4022 24.607 11.7809 26.024 12.7116 27.8252C13.6418 29.626 13.9995 31.5701 13.7187 33.2992C13.4607 34.8884 12.6871 36.0896 11.5405 36.682Z" fill="white"/>
<path d="M42.0213 23.6247C45.8698 23.6247 49.383 19.4228 50.0192 14.0583C50.6952 8.34366 47.8159 2.74133 43.2424 2.74133C39.3932 2.74133 35.8804 6.94336 35.2458 12.3077C34.569 18.0327 37.4568 23.6247 42.0213 23.6247ZM37.7673 12.6059C38.2373 8.63502 40.7446 5.28027 43.2427 5.28027C43.3602 5.28027 43.4615 5.28599 43.5523 5.29779C44.906 5.44823 45.9539 6.63131 46.5711 7.83927C47.4108 9.48218 47.7485 11.6401 47.4979 13.7596C47.01 17.8734 44.2833 21.4018 41.7117 21.0681C41.707 21.0676 41.7023 21.0669 41.6977 21.0663C40.5433 20.9305 39.4483 20.005 38.6937 18.5272C37.8543 16.8842 37.5167 14.726 37.7673 12.6059Z" fill="white"/>
<path d="M64.8747 26.6365C64.0718 21.6921 59.6023 19.3285 55.0524 21.5611C50.7958 23.6493 48.0145 29.0283 48.7751 33.7113C49.5875 38.7142 54.1015 40.9913 58.5972 38.7859C62.8551 36.6974 65.6351 31.319 64.8747 26.6365ZM57.479 36.5062C56.0333 37.2152 54.6058 37.2793 53.4593 36.6871V36.6872C52.3128 36.0947 51.5391 34.8932 51.2811 33.3043C50.7007 29.7298 52.911 25.4399 56.1706 23.8404C59.1578 22.375 61.8344 23.7548 62.3685 27.0434C62.9479 30.6112 60.7446 34.9045 57.479 36.5062Z" fill="white"/>
</g>
<defs>
<clipPath id="clip0">
<rect width="65" height="65" fill="white"/>
</clipPath>
</defs>
</svg>
